<svg id="Слой_1" data-name="Слой 1" xmlns="http://www.w3.org/2000/svg" viewBox="0 0 1481.68 267.7"><path d="M.42,78.28c.75-2,1.34-4,2.27-5.87C5.42,66.93,9.75,63.73,16,63.58c1.61,0,3.22,0,4.84,0q109.92,0,219.86.08a28.81,28.81,0,0,1,11.44,2C259.32,68.8,263,74.9,263,82.75c.1,22.07,0,44.15.08,66.23a3.79,3.79,0,0,1-2.18,3.8q-43.53,25.26-87,50.63c-10.48,6.1-19.2,5.17-28.25-2.75q-21.37-18.72-42.81-37.39c-10.19-8.91-21.88-12.48-35-8.74a48.3,48.3,0,0,0-14.16,7.15c-17,12-33.79,24.45-50.67,36.71A29.65,29.65,0,0,1,.42,199.9Zm192.15,46.45A35,35,0,1,0,158,159.81,35,35,0,0,0,192.57,124.73Z" transform="translate(-0.42 -0.15)"/><path d="M.42,221.08q30.58-22.49,61.15-45c4-2.94,7.94-5.91,13.11-6.47,6.78-.74,12.36,1.67,17.37,6.13,13,11.53,26,22.93,39,34.43,5.38,4.77,10.86,9.32,17.84,11.61,11.76,3.87,22.78,2.24,33.39-3.95q38.26-22.32,76.65-44.42c1.19-.69,2.4-1.35,4.1-2.3v3.69q0,37.22,0,74.43c0,11.06-7.07,18.29-18.26,18.42-10.89.14-21.78.05-32.67.05-64.34,0-128.67-.09-193,.11-9.38,0-15.72-3.2-18.66-12.28Z" transform="translate(-0.42 -0.15)"/><path d="M310.21,46.81c-.81,6-1.69,11.91-2.4,17.89q-3.9,33.17-7.69,66.33Q296,166.31,292,201.58c-.56,4.91-1,9.82-1.78,14.7-.87,5.83-4.46,9.46-10.48,11.78v-4q0-70,0-140c0-21.65-15.56-37.13-37.23-37.14q-96.33,0-192.66,0H45.55c.59-5.48,1.13-10.64,1.71-15.81.51-4.6,1.15-9.19,1.58-13.8C49.93,5.57,57.74-1,69.4.32c28.73,3.27,57.43,6.69,86.15,10q35.26,4.08,70.55,8.09,34.22,3.93,68.44,7.91c7.86.91,12.77,5.37,15.09,12.84a4.61,4.61,0,0,0,.58,1Z" transform="translate(-0.42 -0.15)"/><path d="M157.63,106.6a18.23,18.23,0,1,1-18.29,18.16A18.21,18.21,0,0,1,157.63,106.6Z" transform="translate(-0.42 -0.15)"/><path d="M429.13,222.29q-4.62,0-7.11-2.58a10,10,0,0,1-2.49-7.2V201.06l5,5.17h-4.8q-18.46,0-31.84-6.64a47.58,47.58,0,0,1-20.59-19.11q-7.2-12.47-7.2-30a65.76,65.76,0,0,1,4-23.63,46.65,46.65,0,0,1,11.63-17.54,50.23,50.23,0,0,1,18.83-10.89,80.15,80.15,0,0,1,25.2-3.69h4.8l-5,5.17V89.56q0-4.8,2.49-7.29t7.11-2.49q4.61,0,7.1,2.49t2.5,7.29V99.9l-5-5.17h4.62q19,0,32.3,6.55a46.63,46.63,0,0,1,20.4,19q7.11,12.47,7.11,30.18A62.64,62.64,0,0,1,494,173.93a48,48,0,0,1-11.91,17.53,52.05,52.05,0,0,1-18.74,11,76.65,76.65,0,0,1-25,3.78h-4.62l5-5.17v11.45a10.23,10.23,0,0,1-2.4,7.2Q433.93,222.29,429.13,222.29ZM419.53,195V106l4.43,3.69H417.5a43.87,43.87,0,0,0-15.42,2.59,32.68,32.68,0,0,0-12,7.75,34.08,34.08,0,0,0-7.75,12.83,53.24,53.24,0,0,0-2.68,17.63q0,12.93,4.8,22.06a33.26,33.26,0,0,0,13.39,13.94,39.57,39.57,0,0,0,19.66,4.8H424Zm19,0-4.24-3.69h6.27A42.37,42.37,0,0,0,456,188.6a32.16,32.16,0,0,0,11.9-7.93,36.72,36.72,0,0,0,7.76-12.84,50.41,50.41,0,0,0,2.77-17.35q0-13.47-4.71-22.52a31.86,31.86,0,0,0-13.2-13.66,41.1,41.1,0,0,0-19.94-4.62H434.3l4.24-3.69Z" transform="translate(-0.42 -0.15)"/><path d="M562,218.23q-13.66,0-23.54-5.72a39.63,39.63,0,0,1-15.41-16.25q-5.54-10.51-5.54-24.73a55.81,55.81,0,0,1,3.14-19.39,42.82,42.82,0,0,1,8.95-14.67,38.26,38.26,0,0,1,14-9.42A49.91,49.91,0,0,1,562,124.82q13.47,0,23.35,5.72a39.85,39.85,0,0,1,15.42,16.16q5.54,10.43,5.54,24.83a56.68,56.68,0,0,1-3.14,19.38,41.55,41.55,0,0,1-9,14.77,38.56,38.56,0,0,1-14,9.32A49.3,49.3,0,0,1,562,218.23Zm0-14.4a24,24,0,0,0,13.29-3.69,24.43,24.43,0,0,0,9-10.89q3.23-7.2,3.23-17.72,0-15.89-7-24T562,139.41A24.88,24.88,0,0,0,548.56,143a23.88,23.88,0,0,0-8.95,10.8q-3.23,7.2-3.23,17.73,0,15.69,7,24T562,203.83Z" transform="translate(-0.42 -0.15)"/><path d="M657.48,217.86a8.63,8.63,0,0,1-9.41-9.41v-67H623q-8.13,0-8.12-7.57a7,7,0,0,1,2.21-5.36,8.43,8.43,0,0,1,5.91-2h68.86q8.11,0,8.12,7.39a7.26,7.26,0,0,1-2.12,5.63,8.61,8.61,0,0,1-6,1.94H666.71v67a9.79,9.79,0,0,1-2.31,6.92C662.86,217,660.56,217.86,657.48,217.86Z" transform="translate(-0.42 -0.15)"/><path d="M752.37,218.23q-13.67,0-23.54-5.72a39.56,39.56,0,0,1-15.41-16.25q-5.55-10.51-5.54-24.73A55.58,55.58,0,0,1,711,152.14a42.67,42.67,0,0,1,9-14.67,38.26,38.26,0,0,1,14-9.42,49.88,49.88,0,0,1,18.37-3.23q13.47,0,23.35,5.72a39.89,39.89,0,0,1,15.41,16.16q5.55,10.43,5.54,24.83a56.68,56.68,0,0,1-3.14,19.38,41.39,41.39,0,0,1-8.95,14.77,38.73,38.73,0,0,1-14,9.32A49.38,49.38,0,0,1,752.37,218.23Zm0-14.4a24,24,0,0,0,13.29-3.69,24.41,24.41,0,0,0,9-10.89q3.23-7.2,3.23-17.72,0-15.89-7-24t-18.46-8.12A24.86,24.86,0,0,0,738.89,143a23.82,23.82,0,0,0-8.95,10.8q-3.24,7.2-3.23,17.73,0,15.69,7,24T752.37,203.83Z" transform="translate(-0.42 -0.15)"/><path d="M821,217.68a7.8,7.8,0,0,1-5.45-1.94,6.64,6.64,0,0,1-2.21-4.89q-.09-3,2.49-6.46l31.2-39v9.24L817.9,138.3q-3-3.33-2.77-6.37a6.61,6.61,0,0,1,2.4-4.89,8.1,8.1,0,0,1,5.36-1.85,12.54,12.54,0,0,1,5.81,1.2,13,13,0,0,1,4.34,4l24.55,31.2H851l24.73-31.2a13,13,0,0,1,4.34-4,12.1,12.1,0,0,1,5.63-1.2,7.79,7.79,0,0,1,5.45,1.94,6.74,6.74,0,0,1,2.21,5c.06,2-.83,4.16-2.67,6.37L861.47,174.3V166l31.2,38.4q2.76,3.31,2.67,6.37a6.6,6.6,0,0,1-2.3,5,8.14,8.14,0,0,1-5.54,1.94,11.38,11.38,0,0,1-5.63-1.29,17.19,17.19,0,0,1-4.53-3.88L851,179.28h6.27L831,212.51a17.59,17.59,0,0,1-4.34,3.78A10.68,10.68,0,0,1,821,217.68Z" transform="translate(-0.42 -0.15)"/><path d="M956,218.23q-13.66,0-23.54-5.72A39.65,39.65,0,0,1,917,196.26q-5.53-10.51-5.53-24.73a55.82,55.82,0,0,1,3.13-19.39,42.85,42.85,0,0,1,9-14.67,38.17,38.17,0,0,1,14-9.42A49.88,49.88,0,0,1,956,124.82q13.47,0,23.35,5.72a39.89,39.89,0,0,1,15.41,16.16q5.55,10.43,5.54,24.83a56.68,56.68,0,0,1-3.14,19.38,41.39,41.39,0,0,1-8.95,14.77,38.73,38.73,0,0,1-14,9.32A49.38,49.38,0,0,1,956,218.23Zm0-14.4a24,24,0,0,0,13.29-3.69,24.41,24.41,0,0,0,9-10.89q3.22-7.2,3.23-17.72,0-15.89-7-24T956,139.41A24.86,24.86,0,0,0,942.51,143a23.82,23.82,0,0,0-9,10.8q-3.24,7.2-3.23,17.73,0,15.69,7,24T956,203.83Z" transform="translate(-0.42 -0.15)"/><path d="M1063.06,218.23q-13.85,0-23.91-5.81a39.77,39.77,0,0,1-15.6-16.43q-5.53-10.62-5.54-25a56,56,0,0,1,3.14-19.29,38.34,38.34,0,0,1,23.17-23.63,52.53,52.53,0,0,1,32.3-1.29,40.33,40.33,0,0,1,13.2,6.37,6.56,6.56,0,0,1,3,3.6,8.62,8.62,0,0,1,.18,4.34,7.26,7.26,0,0,1-2,3.78,6.29,6.29,0,0,1-3.78,1.85,7.8,7.8,0,0,1-4.8-1.2,31.34,31.34,0,0,0-9-4.53,30.86,30.86,0,0,0-8.86-1.38,30.26,30.26,0,0,0-11.72,2.12,23.24,23.24,0,0,0-8.58,6.09,25.76,25.76,0,0,0-5.27,9.88,47.38,47.38,0,0,0-1.75,13.48q0,15.14,7.11,23.72t20.21,8.58a32.85,32.85,0,0,0,8.86-1.29,29.32,29.32,0,0,0,9-4.43,7.3,7.3,0,0,1,4.8-1.11,6,6,0,0,1,3.6,1.94,8.1,8.1,0,0,1,1.57,8,6.89,6.89,0,0,1-3.14,3.69,39,39,0,0,1-12.83,6.1A52.31,52.31,0,0,1,1063.06,218.23Z" transform="translate(-0.42 -0.15)"/><path d="M1139.85,217.86a8.65,8.65,0,0,1-9.42-9.41v-67h-25.1q-8.13,0-8.12-7.57a6.92,6.92,0,0,1,2.21-5.36,8.43,8.43,0,0,1,5.91-2h68.86q8.11,0,8.12,7.39a7.26,7.26,0,0,1-2.12,5.63,8.61,8.61,0,0,1-6,1.94h-25.11v67a9.79,9.79,0,0,1-2.31,6.92Q1144.46,217.86,1139.85,217.86Z" transform="translate(-0.42 -0.15)"/><path d="M1204.64,217.86a10.1,10.1,0,0,1-4.7-1,6.64,6.64,0,0,1-3-3.23,13.81,13.81,0,0,1-1-5.73V134.24c0-3,.74-5.2,2.21-6.74a9.69,9.69,0,0,1,12.56,0c1.47,1.54,2.21,3.78,2.21,6.74v63.87h-4.8l50-66.83a23.32,23.32,0,0,1,4.24-4.24,10.36,10.36,0,0,1,6.47-1.85,9.44,9.44,0,0,1,4.61,1,6.71,6.71,0,0,1,2.86,3.23,13.72,13.72,0,0,1,1,5.72v73.66a9.63,9.63,0,0,1-2.13,6.64,7.8,7.8,0,0,1-6.18,2.4q-4.24,0-6.46-2.4a9.38,9.38,0,0,1-2.22-6.64V144.94h5l-50.21,67a23,23,0,0,1-4,4.06A10.29,10.29,0,0,1,1204.64,217.86Z" transform="translate(-0.42 -0.15)"/><path d="M1314.85,217.86a8.63,8.63,0,0,1-9.41-9.41V134.61q0-4.8,2.49-7.11a9.79,9.79,0,0,1,6.92-2.31q4.43,0,6.83,2.31t2.4,7.11v28.24h44.86V134.61q0-4.8,2.31-7.11t6.92-2.31a9.79,9.79,0,0,1,6.92,2.31q2.49,2.31,2.49,7.11v73.84a8.63,8.63,0,0,1-9.41,9.41q-4.62,0-6.92-2.49a9.79,9.79,0,0,1-2.31-6.92V177.62h-44.86v30.83a9.79,9.79,0,0,1-2.31,6.92Q1319.46,217.86,1314.85,217.86Z" transform="translate(-0.42 -0.15)"/><path d="M1424.87,217.86a9.17,9.17,0,0,1-6.92-2.58,9.94,9.94,0,0,1-2.49-7.2V137c0-3.33.89-5.91,2.68-7.76s4.39-2.77,7.84-2.77h48q4.24,0,6.18,1.85c1.3,1.23,1.94,3.08,1.94,5.54a7.59,7.59,0,0,1-1.94,5.63q-1.94,1.94-6.18,1.94H1434.1v66.64Q1434.1,217.86,1424.87,217.86Z" transform="translate(-0.42 -0.15)"/></svg>