<?xml version="1.0" encoding="UTF-8" standalone="no"?>
<svg
   viewBox="0 0 24 24"
   version="1.1"
   id="svg6"
   sodipodi:docname="star-outline.svg"
   inkscape:version="1.1.2 (0a00cf5339, 2022-02-04, custom)"
   xmlns:inkscape="http://www.inkscape.org/namespaces/inkscape"
   xmlns:sodipodi="http://sodipodi.sourceforge.net/DTD/sodipodi-0.dtd"
   xmlns="http://www.w3.org/2000/svg"
   xmlns:svg="http://www.w3.org/2000/svg">
  <defs
     id="defs10" />
  <sodipodi:namedview
     id="namedview8"
     pagecolor="#ffffff"
     bordercolor="#999999"
     borderopacity="1"
     inkscape:pageshadow="0"
     inkscape:pageopacity="0"
     inkscape:pagecheckerboard="0"
     showgrid="false"
     inkscape:zoom="32"
     inkscape:cx="17.265625"
     inkscape:cy="10.65625"
     inkscape:window-width="1680"
     inkscape:window-height="987"
     inkscape:window-x="-8"
     inkscape:window-y="-8"
     inkscape:window-maximized="1"
     inkscape:current-layer="svg6" />
  <path
     d="m0 0h24v24h-24z"
     fill="#fff"
     opacity="0"
     transform="matrix(0 1 -1 0 24 0)"
     id="path2" />
  <path
     d="m17.56 21a1 1 0 0 1 -.46-.11l-5.1-2.67-5.1 2.67a1 1 0 0 1 -1.45-1.06l1-5.63-4.12-4a1 1 0 0 1 -.25-1 1 1 0 0 1 .81-.68l5.7-.83 2.51-5.13a1 1 0 0 1 1.8 0l2.54 5.12 5.7.83a1 1 0 0 1 .81.68 1 1 0 0 1 -.25 1l-4.12 4 1 5.63a1 1 0 0 1 -.4 1 1 1 0 0 1 -.62.18zm-5.56-4.9a.92.92 0 0 1 .46.11l3.77 2-.72-4.21a1 1 0 0 1 .29-.89l3-2.93-4.2-.62a1 1 0 0 1 -.71-.56l-1.89-3.75-1.89 3.75a1 1 0 0 1 -.75.54l-4.2.62 3 2.93a1 1 0 0 1 .29.89l-.72 4.16 3.77-2a.92.92 0 0 1 .5-.04z"
     fill="#231f20"
     id="path4" />
  <path
     style="fill:#000000;stroke-width:0.021363;stroke-linejoin:round"
     d="M 6.1902829,20.950365 C 5.7896539,20.842315 5.502455,20.503184 5.4675872,20.096992 5.4552601,19.953388 5.5667005,19.264611 5.9564632,17.075413 6.2341268,15.515846 6.4570254,14.221983 6.4517935,14.20016 6.4465616,14.178338 5.5034771,13.250623 4.3560501,12.138571 2.0018299,9.8569312 2.0690163,9.9350086 2.0702036,9.4821934 2.0712148,9.0965541 2.2480642,8.8165719 2.5971533,8.647943 2.7903667,8.5546107 2.9927451,8.5206466 5.6900922,8.1288694 7.2775013,7.8983055 8.5879597,7.697993 8.6022225,7.6837302 8.616485,7.6694677 9.1972676,6.4943209 9.8928507,5.0722928 10.732797,3.3551326 11.198234,2.4399113 11.278693,2.3472139 c 0.262759,-0.3027285 0.737653,-0.4132136 1.092569,-0.2541891 0.362728,0.1625243 0.322226,0.093762 1.745267,2.9630505 l 1.308842,2.63903 2.917881,0.4247903 c 3.189947,0.4643984 3.142095,0.4542913 3.367751,0.7112996 0.188096,0.2142296 0.249254,0.3728672 0.250065,0.6486379 0.0013,0.4565241 0.199349,0.2401676 -3.517696,3.8436749 l -0.883168,0.856192 0.511721,2.881226 c 0.546838,3.078952 0.547619,3.085412 0.406382,3.362259 -0.183535,0.359759 -0.495127,0.554098 -0.888407,0.554098 -0.296008,0 -0.152199,0.06875 -3.227396,-1.542868 L 12.00178,18.197232 9.4223089,19.547378 c -1.4187095,0.74258 -2.6535472,1.372265 -2.7440836,1.399298 -0.1945008,0.05808 -0.2837838,0.05875 -0.4879424,0.0037 z M 16.239221,18.190897 c 0,-0.01893 -0.166163,-1.005081 -0.369252,-2.19145 -0.26684,-1.558779 -0.363369,-2.194971 -0.348038,-2.293817 0.05308,-0.342227 0.09905,-0.394916 1.735219,-1.988852 0.853769,-0.83173 1.552308,-1.52156 1.552308,-1.532956 0,-0.0114 -0.946314,-0.160346 -2.10292,-0.3310005 C 15.549932,9.6821671 14.536857,9.5197933 14.45526,9.4919903 14.373663,9.4641874 14.239714,9.3822986 14.157596,9.3100149 14.024654,9.1929947 13.899145,8.9628411 13.01249,7.2101638 12.4648,6.1275295 12.009179,5.2417715 12,5.241813 11.990821,5.2418531 11.549117,6.1015457 11.018436,7.1522377 10.487755,8.2029296 10.009995,9.1183908 9.9567485,9.1865958 9.8992046,9.2603042 9.7760772,9.3513874 9.6531945,9.411149 9.4625181,9.5038812 9.2869385,9.5351135 7.3936022,9.8130893 5.1579857,10.141318 5.1489657,10.142789 5.1637395,10.176766 c 0.00556,0.01279 0.7073735,0.706139 1.5595804,1.540771 1.7068333,1.671632 1.7115989,1.677371 1.7125683,2.062273 2.67e-4,0.104276 -0.1597182,1.111818 -0.3555125,2.238984 -0.1957942,1.127166 -0.3515566,2.069164 -0.346138,2.09333 0.00639,0.0285 0.6725304,-0.307901 1.895804,-0.957378 1.0372743,-0.550724 1.9485593,-1.015598 2.0250783,-1.033052 0.08896,-0.02029 0.232909,-0.01985 0.399217,0.0012 0.25442,0.03226 0.302335,0.05547 2.197453,1.064461 1.065549,0.567317 1.948627,1.032932 1.962396,1.034702 0.01377,0.0018 0.02503,-0.01227 0.02503,-0.0312 z"
     id="path125" />
  <rect
     style="fill:#000000;stroke-width:0.64;stroke-linejoin:round"
     id="rect500"
     width="2.59375"
     height="11.84375"
     x="10.53125"
     y="5.03125" />
  <rect
     style="fill:#000000;stroke-width:0.64;stroke-linejoin:round"
     id="rect502"
     width="4.65625"
     height="2.6875"
     x="9.90625"
     y="7.40625" />
  <rect
     style="fill:#000000;stroke-width:0.64;stroke-linejoin:round"
     id="rect504"
     width="14.4375"
     height="2.96875"
     x="4.6875"
     y="9.125" />
  <rect
     style="fill:#000000;stroke-width:0.64;stroke-linejoin:round"
     id="rect508"
     width="10.966454"
     height="2.5859501"
     x="6.59375"
     y="11.59375" />
  <rect
     style="fill:#000000;stroke-width:0.64;stroke-linejoin:round"
     id="rect510"
     width="3.09375"
     height="3.09375"
     x="7.4375"
     y="13.78125" />
  <rect
     style="fill:#000000;stroke-width:0.64;stroke-linejoin:round"
     id="rect512"
     width="2.90625"
     height="1.375"
     x="7.4375"
     y="16.875" />
  <rect
     style="fill:#000000;stroke-width:0.64;stroke-linejoin:round"
     id="rect514"
     width="4.01125"
     height="4.67875"
     x="12.21875"
     y="13.53125" />
</svg>
